# xmcd
#
# Track frame offsets:
#	150
#	16705
#	35347
#	55936
#	75801
#	89911
#	104454
#	117904
#	134442
#	150182
#	177402
#	190577
#	211695
#
# Disc length: 3076 seconds
#
# Revision: 0
# Processed by: cddbd v1.5.1PL2 Copyright (c) Steve Scherf et al.
# Submitted via: dBpowerAMP V4.0
#
DISCID=980c020d
DTITLE=Haley Sheeler - Closer to the ground
DYEAR=2005
DGENRE=country
TTITLE0=For What It's Worth
TTITLE1=Angel
TTITLE2=I Don't Ask For Much
TTITLE3=Closer To The Ground
TTITLE4=The Ashley Song
TTITLE5=Going Home
TTITLE6=Rainy Day
TTITLE7=Summer Song
TTITLE8=Back To You
TTITLE9=Hallelujah
TTITLE10=You Can Close Your Eyes
TTITLE11=What Is It Good For? - War
TTITLE12=Amazing Grace
EXTD=Haley Sheeler ... (c) USA\n2006 FaKK:\nhttp://derpublisher.de.funpic.de/FaKK
EXTT0=
EXTT1=
EXTT2=
EXTT3=
EXTT4=
EXTT5=
EXTT6=
EXTT7=
EXTT8=
EXTT9=
EXTT10=
EXTT11=
EXTT12=
PLAYORDER=
